<svg width="1109" height="180" viewBox="0 0 1109 180" fill="none" xmlns="http://www.w3.org/2000/svg">
<mask id="mask0_78_82" style="mask-type:alpha" maskUnits="userSpaceOnUse" x="0" y="0" width="1109" height="180">
<rect width="1109" height="180" transform="matrix(-1 0 0 1 1109 0)" fill="#E46693"/>
</mask>
<g mask="url(#mask0_78_82)">
<path d="M1109 0H584V185.538H1109V0Z" fill="#FFC107"/>
<rect width="780" height="186" fill="#F3F4F8"/>
<rect x="130" y="36.9231" width="222" height="25.8462" fill="#343A40"/>
<path d="M142.508 56.5385H140.164V45.1635H142.508V56.5385ZM153.016 47.0619H149.531V56.5385H147.188V47.0619H143.75V45.1635H153.016V47.0619ZM161.203 51.6088H156.703V54.6556H161.984V56.5385H154.359V45.1635H161.969V47.0619H156.703V49.7728H161.203V51.6088ZM172.609 56.5385H170.266L165.703 49.0541V56.5385H163.359V45.1635H165.703L170.273 52.6635V45.1635H172.609V56.5385ZM180.555 53.5541C180.555 53.1114 180.398 52.7728 180.086 52.5385C179.773 52.2989 179.211 52.0489 178.398 51.7885C177.586 51.5228 176.943 51.2624 176.469 51.0072C175.177 50.3093 174.531 49.3692 174.531 48.1869C174.531 47.5723 174.703 47.0254 175.047 46.5463C175.396 46.0619 175.893 45.6843 176.539 45.4135C177.19 45.1426 177.919 45.0072 178.727 45.0072C179.539 45.0072 180.263 45.1556 180.898 45.4525C181.534 45.7442 182.026 46.1582 182.375 46.6947C182.729 47.2312 182.906 47.8405 182.906 48.5228H180.562C180.562 48.002 180.398 47.5983 180.07 47.3119C179.742 47.0202 179.281 46.8744 178.688 46.8744C178.115 46.8744 177.669 46.9968 177.352 47.2416C177.034 47.4812 176.875 47.7989 176.875 48.1947C176.875 48.5645 177.06 48.8744 177.43 49.1244C177.805 49.3744 178.354 49.6088 179.078 49.8275C180.411 50.2286 181.383 50.726 181.992 51.3197C182.602 51.9135 182.906 52.653 182.906 53.5385C182.906 54.5228 182.534 55.2963 181.789 55.8588C181.044 56.4161 180.042 56.6947 178.781 56.6947C177.906 56.6947 177.109 56.5358 176.391 56.2181C175.672 55.8952 175.122 55.4551 174.742 54.8978C174.367 54.3405 174.18 53.6947 174.18 52.9603H176.531C176.531 54.2155 177.281 54.8431 178.781 54.8431C179.339 54.8431 179.773 54.7312 180.086 54.5072C180.398 54.278 180.555 53.9603 180.555 53.5541ZM194.383 53.5541C194.383 53.1114 194.227 52.7728 193.914 52.5385C193.602 52.2989 193.039 52.0489 192.227 51.7885C191.414 51.5228 190.771 51.2624 190.297 51.0072C189.005 50.3093 188.359 49.3692 188.359 48.1869C188.359 47.5723 188.531 47.0254 188.875 46.5463C189.224 46.0619 189.721 45.6843 190.367 45.4135C191.018 45.1426 191.747 45.0072 192.555 45.0072C193.367 45.0072 194.091 45.1556 194.727 45.4525C195.362 45.7442 195.854 46.1582 196.203 46.6947C196.557 47.2312 196.734 47.8405 196.734 48.5228H194.391C194.391 48.002 194.227 47.5983 193.898 47.3119C193.57 47.0202 193.109 46.8744 192.516 46.8744C191.943 46.8744 191.497 46.9968 191.18 47.2416C190.862 47.4812 190.703 47.7989 190.703 48.1947C190.703 48.5645 190.888 48.8744 191.258 49.1244C191.633 49.3744 192.182 49.6088 192.906 49.8275C194.24 50.2286 195.211 50.726 195.82 51.3197C196.43 51.9135 196.734 52.653 196.734 53.5385C196.734 54.5228 196.362 55.2963 195.617 55.8588C194.872 56.4161 193.87 56.6947 192.609 56.6947C191.734 56.6947 190.938 56.5358 190.219 56.2181C189.5 55.8952 188.951 55.4551 188.57 54.8978C188.195 54.3405 188.008 53.6947 188.008 52.9603H190.359C190.359 54.2155 191.109 54.8431 192.609 54.8431C193.167 54.8431 193.602 54.7312 193.914 54.5072C194.227 54.278 194.383 53.9603 194.383 53.5541ZM205.172 51.6088H200.672V54.6556H205.953V56.5385H198.328V45.1635H205.938V47.0619H200.672V49.7728H205.172V51.6088ZM209.672 54.6556H214.648V56.5385H207.328V45.1635H209.672V54.6556ZM222.844 51.6088H218.344V54.6556H223.625V56.5385H216V45.1635H223.609V47.0619H218.344V49.7728H222.844V51.6088ZM233.93 52.7494C233.841 53.9733 233.388 54.9369 232.57 55.64C231.758 56.3431 230.685 56.6947 229.352 56.6947C227.893 56.6947 226.745 56.2051 225.906 55.226C225.073 54.2416 224.656 52.8926 224.656 51.1791V50.4838C224.656 49.39 224.849 48.4265 225.234 47.5931C225.62 46.7598 226.169 46.1218 226.883 45.6791C227.602 45.2312 228.435 45.0072 229.383 45.0072C230.695 45.0072 231.753 45.3588 232.555 46.0619C233.357 46.765 233.82 47.752 233.945 49.0228H231.602C231.544 48.2885 231.339 47.7572 230.984 47.4291C230.635 47.0957 230.102 46.9291 229.383 46.9291C228.602 46.9291 228.016 47.2103 227.625 47.7728C227.24 48.3301 227.042 49.1973 227.031 50.3744V51.2338C227.031 52.4629 227.216 53.3614 227.586 53.9291C227.961 54.4968 228.549 54.7806 229.352 54.7806C230.076 54.7806 230.615 54.6166 230.969 54.2885C231.328 53.9551 231.534 53.4421 231.586 52.7494H233.93ZM237.961 56.5385H235.617V45.1635H237.961V56.5385ZM249.484 51.1088C249.484 52.2286 249.286 53.2103 248.891 54.0541C248.495 54.8978 247.927 55.5489 247.188 56.0072C246.453 56.4655 245.609 56.6947 244.656 56.6947C243.714 56.6947 242.872 56.4681 242.133 56.015C241.393 55.5619 240.82 54.9161 240.414 54.0775C240.008 53.2338 239.802 52.265 239.797 51.1713V50.6088C239.797 49.489 239.997 48.5046 240.398 47.6556C240.805 46.8015 241.375 46.1478 242.109 45.6947C242.849 45.2364 243.693 45.0072 244.641 45.0072C245.589 45.0072 246.43 45.2364 247.164 45.6947C247.904 46.1478 248.474 46.8015 248.875 47.6556C249.281 48.5046 249.484 49.4864 249.484 50.601V51.1088ZM247.109 50.5931C247.109 49.4004 246.896 48.4942 246.469 47.8744C246.042 47.2546 245.432 46.9447 244.641 46.9447C243.854 46.9447 243.247 47.252 242.82 47.8666C242.393 48.476 242.177 49.3718 242.172 50.5541V51.1088C242.172 52.2702 242.385 53.1713 242.812 53.8119C243.24 54.4525 243.854 54.7728 244.656 54.7728C245.443 54.7728 246.047 54.4655 246.469 53.851C246.891 53.2312 247.104 52.3301 247.109 51.1478V50.5931ZM260.438 56.5385H258.094L253.531 49.0541V56.5385H251.188V45.1635H253.531L258.102 52.6635V45.1635H260.438V56.5385ZM269.047 54.1947H264.938L264.156 56.5385H261.664L265.898 45.1635H268.07L272.328 56.5385H269.836L269.047 54.1947ZM265.57 52.2963H268.414L266.984 48.0385L265.57 52.2963ZM273.391 56.5385V45.1635H276.891C277.891 45.1635 278.784 45.39 279.57 45.8431C280.362 46.2911 280.979 46.9317 281.422 47.765C281.865 48.5931 282.086 49.5358 282.086 50.5931V51.1166C282.086 52.1739 281.867 53.114 281.43 53.9369C280.997 54.7598 280.385 55.3978 279.594 55.851C278.802 56.3041 277.909 56.5332 276.914 56.5385H273.391ZM275.734 47.0619V54.6556H276.867C277.784 54.6556 278.484 54.3562 278.969 53.7572C279.453 53.1582 279.701 52.3015 279.711 51.1869V50.5853C279.711 49.4291 279.471 48.5541 278.992 47.9603C278.513 47.3614 277.812 47.0619 276.891 47.0619H275.734ZM293.141 51.1088C293.141 52.2286 292.943 53.2103 292.547 54.0541C292.151 54.8978 291.583 55.5489 290.844 56.0072C290.109 56.4655 289.266 56.6947 288.312 56.6947C287.37 56.6947 286.529 56.4681 285.789 56.015C285.049 55.5619 284.477 54.9161 284.07 54.0775C283.664 53.2338 283.458 52.265 283.453 51.1713V50.6088C283.453 49.489 283.654 48.5046 284.055 47.6556C284.461 46.8015 285.031 46.1478 285.766 45.6947C286.505 45.2364 287.349 45.0072 288.297 45.0072C289.245 45.0072 290.086 45.2364 290.82 45.6947C291.56 46.1478 292.13 46.8015 292.531 47.6556C292.938 48.5046 293.141 49.4864 293.141 50.601V51.1088ZM290.766 50.5931C290.766 49.4004 290.552 48.4942 290.125 47.8744C289.698 47.2546 289.089 46.9447 288.297 46.9447C287.51 46.9447 286.904 47.252 286.477 47.8666C286.049 48.476 285.833 49.3718 285.828 50.5541V51.1088C285.828 52.2702 286.042 53.1713 286.469 53.8119C286.896 54.4525 287.51 54.7728 288.312 54.7728C289.099 54.7728 289.703 54.4655 290.125 53.851C290.547 53.2312 290.76 52.3301 290.766 51.1478V50.5931ZM300.742 53.5541C300.742 53.1114 300.586 52.7728 300.273 52.5385C299.961 52.2989 299.398 52.0489 298.586 51.7885C297.773 51.5228 297.13 51.2624 296.656 51.0072C295.365 50.3093 294.719 49.3692 294.719 48.1869C294.719 47.5723 294.891 47.0254 295.234 46.5463C295.583 46.0619 296.081 45.6843 296.727 45.4135C297.378 45.1426 298.107 45.0072 298.914 45.0072C299.727 45.0072 300.451 45.1556 301.086 45.4525C301.721 45.7442 302.214 46.1582 302.562 46.6947C302.917 47.2312 303.094 47.8405 303.094 48.5228H300.75C300.75 48.002 300.586 47.5983 300.258 47.3119C299.93 47.0202 299.469 46.8744 298.875 46.8744C298.302 46.8744 297.857 46.9968 297.539 47.2416C297.221 47.4812 297.062 47.7989 297.062 48.1947C297.062 48.5645 297.247 48.8744 297.617 49.1244C297.992 49.3744 298.542 49.6088 299.266 49.8275C300.599 50.2286 301.57 50.726 302.18 51.3197C302.789 51.9135 303.094 52.653 303.094 53.5385C303.094 54.5228 302.721 55.2963 301.977 55.8588C301.232 56.4161 300.229 56.6947 298.969 56.6947C298.094 56.6947 297.297 56.5358 296.578 56.2181C295.859 55.8952 295.31 55.4551 294.93 54.8978C294.555 54.3405 294.367 53.6947 294.367 52.9603H296.719C296.719 54.2155 297.469 54.8431 298.969 54.8431C299.526 54.8431 299.961 54.7312 300.273 54.5072C300.586 54.278 300.742 53.9603 300.742 53.5541ZM317.602 52.7494C317.513 53.9733 317.06 54.9369 316.242 55.64C315.43 56.3431 314.357 56.6947 313.023 56.6947C311.565 56.6947 310.417 56.2051 309.578 55.226C308.745 54.2416 308.328 52.8926 308.328 51.1791V50.4838C308.328 49.39 308.521 48.4265 308.906 47.5931C309.292 46.7598 309.841 46.1218 310.555 45.6791C311.273 45.2312 312.107 45.0072 313.055 45.0072C314.367 45.0072 315.424 45.3588 316.227 46.0619C317.029 46.765 317.492 47.752 317.617 49.0228H315.273C315.216 48.2885 315.01 47.7572 314.656 47.4291C314.307 47.0957 313.773 46.9291 313.055 46.9291C312.273 46.9291 311.688 47.2103 311.297 47.7728C310.911 48.3301 310.714 49.1973 310.703 50.3744V51.2338C310.703 52.4629 310.888 53.3614 311.258 53.9291C311.633 54.4968 312.221 54.7806 313.023 54.7806C313.747 54.7806 314.286 54.6166 314.641 54.2885C315 53.9551 315.206 53.4421 315.258 52.7494H317.602ZM328.484 51.1088C328.484 52.2286 328.286 53.2103 327.891 54.0541C327.495 54.8978 326.927 55.5489 326.188 56.0072C325.453 56.4655 324.609 56.6947 323.656 56.6947C322.714 56.6947 321.872 56.4681 321.133 56.015C320.393 55.5619 319.82 54.9161 319.414 54.0775C319.008 53.2338 318.802 52.265 318.797 51.1713V50.6088C318.797 49.489 318.997 48.5046 319.398 47.6556C319.805 46.8015 320.375 46.1478 321.109 45.6947C321.849 45.2364 322.693 45.0072 323.641 45.0072C324.589 45.0072 325.43 45.2364 326.164 45.6947C326.904 46.1478 327.474 46.8015 327.875 47.6556C328.281 48.5046 328.484 49.4864 328.484 50.601V51.1088ZM326.109 50.5931C326.109 49.4004 325.896 48.4942 325.469 47.8744C325.042 47.2546 324.432 46.9447 323.641 46.9447C322.854 46.9447 322.247 47.252 321.82 47.8666C321.393 48.476 321.177 49.3718 321.172 50.5541V51.1088C321.172 52.2702 321.385 53.1713 321.812 53.8119C322.24 54.4525 322.854 54.7728 323.656 54.7728C324.443 54.7728 325.047 54.4655 325.469 53.851C325.891 53.2312 326.104 52.3301 326.109 51.1478V50.5931ZM333.25 45.1635L336.172 53.4135L339.078 45.1635H342.156V56.5385H339.805V53.4291L340.039 48.0619L336.969 56.5385H335.359L332.297 48.0697L332.531 53.4291V56.5385H330.188V45.1635H333.25Z" fill="white"/>
<path d="M135.987 97.3846V71.08H144.46C146.785 71.08 148.875 71.6099 150.729 72.6698C152.584 73.7177 154.03 75.2051 155.065 77.1322C156.113 79.0472 156.643 81.1971 156.655 83.5819V84.7924C156.655 87.2012 156.143 89.3632 155.12 91.2782C154.108 93.1812 152.675 94.6747 150.82 95.7587C148.977 96.8306 146.917 97.3726 144.641 97.3846H135.987ZM142.329 75.976V92.5067H144.533C146.351 92.5067 147.749 91.8623 148.724 90.5736C149.7 89.2728 150.188 87.3457 150.188 84.7924V83.6542C150.188 81.1128 149.7 79.1978 148.724 77.9091C147.749 76.6203 146.327 75.976 144.46 75.976H142.329ZM176.221 86.2377H166.249V92.5067H178.028V97.3846H159.907V71.08H178.064V75.976H166.249V81.5223H176.221V86.2377ZM194.179 90.3929C194.179 89.4655 193.848 88.7429 193.186 88.225C192.535 87.7071 191.385 87.1711 189.735 86.6171C188.085 86.063 186.736 85.5271 185.688 85.0092C182.279 83.335 180.575 81.0345 180.575 78.1078C180.575 76.6504 180.997 75.3677 181.84 74.2596C182.695 73.1395 183.899 72.2723 185.453 71.6581C187.007 71.0318 188.753 70.7186 190.692 70.7186C192.583 70.7186 194.276 71.0559 195.769 71.7303C197.275 72.4048 198.443 73.3684 199.274 74.621C200.105 75.8615 200.521 77.2828 200.521 78.8846H194.197C194.197 77.8127 193.866 76.9816 193.204 76.3915C192.553 75.8013 191.668 75.5062 190.548 75.5062C189.416 75.5062 188.518 75.7592 187.856 76.265C187.206 76.7588 186.88 77.3912 186.88 78.162C186.88 78.8365 187.242 79.4507 187.964 80.0048C188.687 80.5468 189.958 81.1128 191.776 81.703C193.595 82.2811 195.089 82.9074 196.257 83.5819C199.099 85.2199 200.521 87.4782 200.521 90.3568C200.521 92.6573 199.653 94.4639 197.919 95.7767C196.185 97.0896 193.806 97.746 190.783 97.746C188.651 97.746 186.718 97.3666 184.983 96.6078C183.261 95.837 181.96 94.7891 181.081 93.4642C180.214 92.1273 179.78 90.5917 179.78 88.8573H186.14C186.14 90.2665 186.501 91.3083 187.224 91.9828C187.958 92.6452 189.145 92.9764 190.783 92.9764C191.831 92.9764 192.656 92.7536 193.258 92.308C193.872 91.8503 194.179 91.212 194.179 90.3929ZM225.055 88.4779C224.97 90.3086 224.477 91.9286 223.573 93.3378C222.67 94.7349 221.399 95.8189 219.761 96.5897C218.135 97.3606 216.274 97.746 214.179 97.746C210.722 97.746 208 96.6198 206.013 94.3676C204.025 92.1153 203.032 88.9356 203.032 84.8285V83.5277C203.032 80.9502 203.477 78.698 204.369 76.7709C205.272 74.8317 206.567 73.3383 208.253 72.2904C209.939 71.2305 211.89 70.7006 214.106 70.7006C217.298 70.7006 219.864 71.5437 221.803 73.2299C223.742 74.904 224.844 77.2165 225.109 80.1674H218.786C218.737 78.5655 218.334 77.4152 217.575 76.7167C216.816 76.0181 215.66 75.6688 214.106 75.6688C212.529 75.6688 211.372 76.259 210.638 77.4393C209.903 78.6197 209.518 80.5046 209.481 83.0941V84.955C209.481 87.7613 209.831 89.7666 210.529 90.9711C211.24 92.1755 212.456 92.7777 214.179 92.7777C215.636 92.7777 216.75 92.4344 217.521 91.7479C218.292 91.0614 218.701 89.9714 218.75 88.4779H225.055ZM250.33 84.7743C250.33 87.3397 249.854 89.6101 248.902 91.5853C247.951 93.5606 246.596 95.0842 244.837 96.1561C243.091 97.216 241.098 97.746 238.857 97.746C236.617 97.746 234.63 97.2341 232.896 96.2103C231.161 95.1745 229.806 93.6991 228.831 91.7841C227.867 89.869 227.361 87.6709 227.313 85.1898V83.7084C227.313 81.1309 227.783 78.8606 228.722 76.8973C229.674 74.9221 231.029 73.3985 232.787 72.3265C234.558 71.2546 236.569 70.7186 238.821 70.7186C241.049 70.7186 243.037 71.2486 244.783 72.3085C246.53 73.3684 247.885 74.8799 248.848 76.8431C249.824 78.7943 250.318 81.0345 250.33 83.5638V84.7743ZM243.88 83.6722C243.88 81.0586 243.44 79.0774 242.561 77.7284C241.694 76.3674 240.447 75.6869 238.821 75.6869C235.642 75.6869 233.961 78.0717 233.781 82.8412L233.763 84.7743C233.763 87.3518 234.19 89.333 235.045 90.7181C235.901 92.1032 237.171 92.7958 238.857 92.7958C240.459 92.7958 241.694 92.1153 242.561 90.7543C243.428 89.3933 243.868 87.4361 243.88 84.8827V83.6722ZM275.568 97.3846H269.263L259.941 81.0165V97.3846H253.6V71.08H259.941L269.245 87.4481V71.08H275.568V97.3846ZM299.687 75.976H291.792V97.3846H285.451V75.976H277.7V71.08H299.687V75.976ZM324.149 84.7743C324.149 87.3397 323.673 89.6101 322.722 91.5853C321.77 93.5606 320.415 95.0842 318.657 96.1561C316.91 97.216 314.917 97.746 312.677 97.746C310.437 97.746 308.449 97.2341 306.715 96.2103C304.98 95.1745 303.625 93.6991 302.65 91.7841C301.686 89.869 301.181 87.6709 301.132 85.1898V83.7084C301.132 81.1309 301.602 78.8606 302.542 76.8973C303.493 74.9221 304.848 73.3985 306.606 72.3265C308.377 71.2546 310.388 70.7186 312.641 70.7186C314.869 70.7186 316.856 71.2486 318.603 72.3085C320.349 73.3684 321.704 74.8799 322.667 76.8431C323.643 78.7943 324.137 81.0345 324.149 83.5638V84.7743ZM317.699 83.6722C317.699 81.0586 317.26 79.0774 316.38 77.7284C315.513 76.3674 314.267 75.6869 312.641 75.6869C309.461 75.6869 307.781 78.0717 307.6 82.8412L307.582 84.7743C307.582 87.3518 308.01 89.333 308.865 90.7181C309.72 92.1032 310.991 92.7958 312.677 92.7958C314.279 92.7958 315.513 92.1153 316.38 90.7543C317.248 89.3933 317.687 87.4361 317.699 84.8827V83.6722ZM340.987 90.3929C340.987 89.4655 340.656 88.7429 339.993 88.225C339.343 87.7071 338.193 87.1711 336.542 86.6171C334.892 86.063 333.543 85.5271 332.496 85.0092C329.087 83.335 327.383 81.0345 327.383 78.1078C327.383 76.6504 327.804 75.3677 328.647 74.2596C329.503 73.1395 330.707 72.2723 332.261 71.6581C333.814 71.0318 335.561 70.7186 337.5 70.7186C339.391 70.7186 341.083 71.0559 342.577 71.7303C344.082 72.4048 345.25 73.3684 346.082 74.621C346.913 75.8615 347.328 77.2828 347.328 78.8846H341.005C341.005 77.8127 340.674 76.9816 340.011 76.3915C339.361 75.8013 338.476 75.5062 337.355 75.5062C336.223 75.5062 335.326 75.7592 334.664 76.265C334.013 76.7588 333.688 77.3912 333.688 78.162C333.688 78.8365 334.049 79.4507 334.772 80.0048C335.495 80.5468 336.765 81.1128 338.584 81.703C340.403 82.2811 341.896 82.9074 343.064 83.5819C345.907 85.2199 347.328 87.4782 347.328 90.3568C347.328 92.6573 346.461 94.4639 344.727 95.7767C342.992 97.0896 340.613 97.746 337.59 97.746C335.458 97.746 333.525 97.3666 331.791 96.6078C330.069 95.837 328.768 94.7891 327.889 93.4642C327.021 92.1273 326.588 90.5917 326.588 88.8573H332.947C332.947 90.2665 333.309 91.3083 334.031 91.9828C334.766 92.6452 335.952 92.9764 337.59 92.9764C338.638 92.9764 339.463 92.7536 340.065 92.308C340.68 91.8503 340.987 91.212 340.987 90.3929ZM155.269 124.43H143.679V131.716H157.369V137.385H136.31V106.814H157.411V112.504H143.679V118.95H155.269V124.43ZM176.139 129.259C176.139 128.181 175.754 127.342 174.984 126.74C174.229 126.138 172.892 125.515 170.974 124.871C169.056 124.227 167.489 123.604 166.271 123.002C162.31 121.057 160.329 118.383 160.329 114.982C160.329 113.288 160.819 111.797 161.799 110.51C162.793 109.208 164.192 108.2 165.998 107.486C167.804 106.758 169.833 106.394 172.087 106.394C174.285 106.394 176.251 106.786 177.987 107.57C179.736 108.354 181.094 109.474 182.06 110.93C183.026 112.371 183.509 114.023 183.509 115.885H176.16C176.16 114.639 175.775 113.673 175.005 112.987C174.25 112.301 173.221 111.958 171.919 111.958C170.603 111.958 169.56 112.252 168.791 112.84C168.035 113.414 167.657 114.149 167.657 115.045C167.657 115.829 168.077 116.543 168.917 117.186C169.756 117.816 171.233 118.474 173.347 119.16C175.46 119.832 177.196 120.56 178.554 121.344C181.857 123.247 183.509 125.872 183.509 129.217C183.509 131.891 182.501 133.99 180.485 135.516C178.47 137.042 175.705 137.805 172.192 137.805C169.714 137.805 167.468 137.364 165.452 136.482C163.451 135.586 161.939 134.368 160.917 132.828C159.909 131.275 159.405 129.49 159.405 127.474H166.796C166.796 129.112 167.216 130.323 168.056 131.107C168.91 131.877 170.288 132.262 172.192 132.262C173.41 132.262 174.368 132.003 175.068 131.485C175.782 130.953 176.139 130.211 176.139 129.259ZM194.658 127.013V137.385H187.288V106.814H199.487C201.824 106.814 203.889 107.248 205.681 108.116C207.486 108.97 208.879 110.195 209.859 111.79C210.853 113.372 211.35 115.171 211.35 117.186C211.35 120.168 210.279 122.554 208.137 124.346C206.01 126.124 203.084 127.013 199.361 127.013H194.658ZM194.658 121.323H199.487C200.915 121.323 201.999 120.966 202.741 120.252C203.497 119.538 203.875 118.53 203.875 117.228C203.875 115.801 203.49 114.66 202.72 113.806C201.95 112.952 200.901 112.518 199.571 112.504H194.658V121.323ZM234.256 124.43H222.667V131.716H236.356V137.385H215.297V106.814H236.398V112.504H222.667V118.95H234.256V124.43ZM264.092 127.034C263.994 129.161 263.42 131.044 262.37 132.682C261.32 134.305 259.844 135.565 257.94 136.461C256.05 137.357 253.888 137.805 251.452 137.805C247.435 137.805 244.271 136.496 241.962 133.878C239.652 131.261 238.498 127.565 238.498 122.792V121.281C238.498 118.285 239.015 115.668 240.051 113.428C241.101 111.175 242.606 109.439 244.565 108.221C246.525 106.989 248.793 106.373 251.368 106.373C255.077 106.373 258.059 107.353 260.312 109.313C262.566 111.259 263.847 113.946 264.155 117.375H256.806C256.75 115.514 256.281 114.177 255.399 113.365C254.518 112.553 253.174 112.147 251.368 112.147C249.535 112.147 248.191 112.833 247.337 114.205C246.483 115.577 246.035 117.767 245.993 120.777V122.939C245.993 126.201 246.399 128.531 247.211 129.931C248.037 131.331 249.451 132.031 251.452 132.031C253.146 132.031 254.441 131.632 255.336 130.834C256.232 130.036 256.708 128.769 256.764 127.034H264.092ZM275.43 137.385H268.081V106.814H275.43V137.385ZM298.294 131.674H288.195L286.432 137.385H278.558L289.77 106.814H296.699L307.995 137.385H300.079L298.294 131.674ZM289.959 125.984H296.531L293.234 115.381L289.959 125.984ZM318.094 137.385H310.745V106.814H318.094V137.385ZM338.985 129.259C338.985 128.181 338.6 127.342 337.83 126.74C337.074 126.138 335.737 125.515 333.82 124.871C331.902 124.227 330.334 123.604 329.117 123.002C325.155 121.057 323.175 118.383 323.175 114.982C323.175 113.288 323.665 111.797 324.645 110.51C325.638 109.208 327.038 108.2 328.844 107.486C330.649 106.758 332.679 106.394 334.933 106.394C337.13 106.394 339.097 106.786 340.833 107.57C342.582 108.354 343.94 109.474 344.906 110.93C345.872 112.371 346.354 114.023 346.354 115.885H339.006C339.006 114.639 338.621 113.673 337.851 112.987C337.095 112.301 336.066 111.958 334.765 111.958C333.449 111.958 332.406 112.252 331.636 112.84C330.88 113.414 330.502 114.149 330.502 115.045C330.502 115.829 330.922 116.543 331.762 117.186C332.602 117.816 334.079 118.474 336.192 119.16C338.306 119.832 340.042 120.56 341.399 121.344C344.703 123.247 346.354 125.872 346.354 129.217C346.354 131.891 345.347 133.99 343.331 135.516C341.315 137.042 338.551 137.805 335.038 137.805C332.56 137.805 330.313 137.364 328.298 136.482C326.296 135.586 324.785 134.368 323.763 132.828C322.755 131.275 322.251 129.49 322.251 127.474H329.642C329.642 129.112 330.062 130.323 330.901 131.107C331.755 131.877 333.134 132.262 335.038 132.262C336.255 132.262 337.214 132.003 337.914 131.485C338.628 130.953 338.985 130.211 338.985 129.259Z" fill="#343A40"/>
</g>
</svg>
