<svg width="1109" height="180" viewBox="0 0 1109 180" fill="none" xmlns="http://www.w3.org/2000/svg">
<mask id="mask0_147_1" style="mask-type:alpha" maskUnits="userSpaceOnUse" x="0" y="0" width="1109" height="180">
<rect width="1109" height="180" transform="matrix(-1 0 0 1 1109 0)" fill="#E46693"/>
</mask>
<g mask="url(#mask0_147_1)">
<path d="M1109 0H584V185.538H1109V0Z" fill="#EF614B"/>
<rect width="629" height="186" fill="#BBEEF0"/>
<path d="M752.27 95.0933C752.185 96.924 751.691 98.5439 750.788 99.9531C749.885 101.35 748.614 102.434 746.976 103.205C745.35 103.976 743.489 104.361 741.394 104.361C737.937 104.361 735.215 103.235 733.228 100.983C731.24 98.7306 730.247 95.5509 730.247 91.4438V90.1431C730.247 87.5656 730.692 85.3133 731.583 83.3862C732.487 81.4471 733.782 79.9536 735.468 78.9058C737.154 77.8459 739.105 77.3159 741.321 77.3159C744.513 77.3159 747.078 78.159 749.018 79.8452C750.957 81.5194 752.059 83.8319 752.324 86.7827H746C745.952 85.1808 745.549 84.0306 744.79 83.332C744.031 82.6335 742.875 82.2842 741.321 82.2842C739.743 82.2842 738.587 82.8743 737.853 84.0547C737.118 85.235 736.732 87.12 736.696 89.7095V91.5703C736.696 94.3766 737.046 96.382 737.744 97.5864C738.455 98.7909 739.671 99.3931 741.394 99.3931C742.851 99.3931 743.965 99.0498 744.736 98.3633C745.507 97.6768 745.916 96.5868 745.964 95.0933H752.27ZM777.544 91.3896C777.544 93.9551 777.069 96.2254 776.117 98.2007C775.166 100.176 773.811 101.7 772.052 102.771C770.306 103.831 768.312 104.361 766.072 104.361C763.832 104.361 761.845 103.849 760.11 102.826C758.376 101.79 757.021 100.314 756.045 98.3994C755.082 96.4844 754.576 94.2863 754.528 91.8052V90.3237C754.528 87.7463 754.998 85.4759 755.937 83.5127C756.889 81.5374 758.243 80.0138 760.002 78.9419C761.772 77.87 763.784 77.334 766.036 77.334C768.264 77.334 770.252 77.8639 771.998 78.9238C773.744 79.9837 775.099 81.4953 776.063 83.4585C777.039 85.4097 777.532 87.6499 777.544 90.1792V91.3896ZM771.095 90.2876C771.095 87.674 770.655 85.6927 769.776 84.3438C768.909 82.9827 767.662 82.3022 766.036 82.3022C762.856 82.3022 761.176 84.687 760.996 89.4565L760.978 91.3896C760.978 93.9671 761.405 95.9484 762.26 97.3335C763.115 98.7186 764.386 99.4111 766.072 99.4111C767.674 99.4111 768.909 98.7306 769.776 97.3696C770.643 96.0086 771.083 94.0514 771.095 91.498V90.2876ZM789.143 77.6953L795.015 95.9966L800.868 77.6953H809.215V104H802.855V97.8574L803.47 85.2832L797.11 104H792.919L786.542 85.2651L787.156 97.8574V104H780.814V77.6953H789.143ZM819.603 95.0752V104H813.262V77.6953H823.758C825.77 77.6953 827.546 78.0687 829.088 78.8154C830.642 79.5501 831.84 80.604 832.683 81.9771C833.538 83.3381 833.966 84.8857 833.966 86.6201C833.966 89.1855 833.044 91.2391 831.202 92.7808C829.371 94.3104 826.854 95.0752 823.65 95.0752H819.603ZM819.603 90.1792H823.758C824.987 90.1792 825.92 89.8721 826.559 89.2578C827.209 88.6436 827.534 87.7764 827.534 86.6562C827.534 85.4277 827.203 84.4461 826.541 83.7114C825.878 82.9767 824.975 82.6034 823.831 82.5913H819.603V90.1792ZM847.136 94.7139H843.704V104H837.362V77.6953H847.714C850.834 77.6953 853.273 78.3879 855.031 79.7729C856.79 81.158 857.669 83.1152 857.669 85.6445C857.669 87.4753 857.296 88.9928 856.549 90.1973C855.814 91.4017 854.658 92.3773 853.08 93.124L858.572 103.729V104H851.779L847.136 94.7139ZM843.704 89.8179H847.714C848.919 89.8179 849.822 89.5047 850.424 88.8784C851.039 88.2401 851.346 87.3548 851.346 86.2227C851.346 85.0905 851.039 84.2052 850.424 83.5669C849.81 82.9165 848.907 82.5913 847.714 82.5913H843.704V89.8179ZM877.813 92.853H867.84V99.1221H879.62V104H861.499V77.6953H879.656V82.5913H867.84V88.1377H877.813V92.853ZM906.358 99.0859H897.668L896.15 104H889.375L899.023 77.6953H904.985L914.705 104H907.894L906.358 99.0859ZM899.186 94.1899H904.84L902.004 85.0664L899.186 94.1899ZM937.775 100.748C936.8 101.832 935.373 102.705 933.494 103.368C931.615 104.03 929.555 104.361 927.315 104.361C923.87 104.361 921.118 103.307 919.059 101.2C916.999 99.092 915.897 96.1592 915.752 92.4014L915.734 90.125C915.734 87.5355 916.192 85.2772 917.107 83.3501C918.023 81.411 919.33 79.9235 921.028 78.8877C922.738 77.8398 924.713 77.3159 926.954 77.3159C930.23 77.3159 932.771 78.0687 934.578 79.5742C936.396 81.0677 937.456 83.3019 937.757 86.2769H931.651C931.434 84.8075 930.964 83.7596 930.242 83.1333C929.519 82.507 928.495 82.1938 927.17 82.1938C925.581 82.1938 924.352 82.8683 923.485 84.2173C922.618 85.5662 922.178 87.4933 922.166 89.9985V91.5884C922.166 94.214 922.612 96.1893 923.503 97.5142C924.406 98.827 925.821 99.4834 927.749 99.4834C929.399 99.4834 930.627 99.116 931.434 98.3813V94.2983H927.026V89.9443H937.775V100.748ZM963.737 91.3896C963.737 93.9551 963.261 96.2254 962.31 98.2007C961.358 100.176 960.003 101.7 958.245 102.771C956.498 103.831 954.505 104.361 952.265 104.361C950.024 104.361 948.037 103.849 946.303 102.826C944.568 101.79 943.213 100.314 942.238 98.3994C941.274 96.4844 940.768 94.2863 940.72 91.8052V90.3237C940.72 87.7463 941.19 85.4759 942.129 83.5127C943.081 81.5374 944.436 80.0138 946.194 78.9419C947.965 77.87 949.976 77.334 952.229 77.334C954.457 77.334 956.444 77.8639 958.19 78.9238C959.937 79.9837 961.292 81.4953 962.255 83.4585C963.231 85.4097 963.725 87.6499 963.737 90.1792V91.3896ZM957.287 90.2876C957.287 87.674 956.847 85.6927 955.968 84.3438C955.101 82.9827 953.854 82.3022 952.229 82.3022C949.049 82.3022 947.369 84.687 947.188 89.4565L947.17 91.3896C947.17 93.9671 947.597 95.9484 948.453 97.3335C949.308 98.7186 950.578 99.4111 952.265 99.4111C953.867 99.4111 955.101 98.7306 955.968 97.3696C956.835 96.0086 957.275 94.0514 957.287 91.498V90.2876ZM976.781 94.7139H973.348V104H967.007V77.6953H977.359C980.478 77.6953 982.917 78.3879 984.676 79.7729C986.434 81.158 987.313 83.1152 987.313 85.6445C987.313 87.4753 986.94 88.9928 986.193 90.1973C985.459 91.4017 984.302 92.3773 982.725 93.124L988.217 103.729V104H981.424L976.781 94.7139ZM973.348 89.8179H977.359C978.563 89.8179 979.467 89.5047 980.069 88.8784C980.683 88.2401 980.99 87.3548 980.99 86.2227C980.99 85.0905 980.683 84.2052 980.069 83.5669C979.455 82.9165 978.551 82.5913 977.359 82.5913H973.348V89.8179ZM1006.08 99.0859H997.395L995.877 104H989.102L998.75 77.6953H1004.71L1014.43 104H1007.62L1006.08 99.0859ZM998.912 94.1899H1004.57L1001.73 85.0664L998.912 94.1899Z" fill="white"/>
<path d="M729 107.613H1014.36V109.42H729V107.613Z" fill="white"/>
</g>
</svg>
