<svg width="130" height="65" viewBox="0 0 130 65" fill="none" xmlns="http://www.w3.org/2000/svg">
<g clip-path="url(#clip0_2_79)">
<path opacity="0.1" d="M117.528 63.3195C117.528 63.9323 114.931 64.5065 110.399 65H24.6784C20.8645 65.0066 17.1165 64.1922 13.8154 62.6395L13.7646 62.6161C15.0671 62.2303 17.418 61.8705 20.6177 61.5458L20.7612 61.5314C22.1961 61.3887 23.7998 61.2533 25.5525 61.125C25.5967 61.125 25.6419 61.1196 25.6861 61.1151C27.0768 61.0146 28.5562 60.9204 30.1242 60.8325C30.1739 60.8325 30.2224 60.8253 30.2721 60.8235C30.8769 60.7882 31.4943 60.7547 32.1242 60.723L32.367 60.7105C36.953 60.479 42.1659 60.2941 47.8193 60.1721H47.8259C48.6176 60.1542 49.4178 60.1383 50.2265 60.1246C51.1257 60.1072 52.0359 60.092 52.9571 60.0788C53.6602 60.0663 54.3721 60.0573 55.0862 60.0483H55.1028C58.3246 60.0088 61.6535 59.9891 65.0574 59.9891C73.4745 59.9891 81.4302 60.1138 88.4797 60.3381H88.4996C89.5835 60.3722 90.6475 60.4099 91.685 60.4485L92.568 60.4826C93.7387 60.528 94.8792 60.5768 95.9895 60.6288C109.047 61.2326 117.528 62.2133 117.528 63.3195Z" fill="#6C63FF"/>
<g opacity="0.2">
<path opacity="0.2" d="M58.3081 59.5773C58.3045 59.6741 58.2909 59.7704 58.2672 59.8653C57.499 59.766 56.7264 59.6763 55.9494 59.5961C55.9494 59.571 55.9494 59.545 55.9494 59.519C55.9566 59.2499 56.0518 58.9873 56.2253 58.7581C56.4527 58.4656 56.7981 58.2826 57.1789 58.2925C57.5597 58.3023 57.8897 58.5024 58.0939 58.8048C58.2484 59.0423 58.3223 59.3089 58.3081 59.5773Z" fill="#3F3D56"/>
<path opacity="0.2" d="M58.3702 58.0445C58.3972 57.3506 57.8906 56.7746 57.2387 56.7578C56.5867 56.7411 56.0364 57.29 56.0094 57.9838C55.9824 58.6777 56.4891 59.2538 57.141 59.2705C57.7929 59.2873 58.3433 58.7384 58.3702 58.0445Z" fill="#3F3D56"/>
<path opacity="0.2" d="M58.4305 56.5084C58.4574 55.8145 57.9508 55.2385 57.2989 55.2217C56.647 55.205 56.0966 55.7539 56.0697 56.4478C56.0427 57.1416 56.5493 57.7177 57.2012 57.7345C57.8531 57.7512 58.4035 57.2023 58.4305 56.5084Z" fill="#3F3D56"/>
<path opacity="0.2" d="M58.4896 54.9724C58.5166 54.2785 58.01 53.7024 57.358 53.6857C56.7061 53.6689 56.1558 54.2179 56.1288 54.9117C56.1018 55.6056 56.6084 56.1817 57.2604 56.1984C57.9123 56.2152 58.4626 55.6662 58.4896 54.9724Z" fill="#3F3D56"/>
<path opacity="0.2" d="M58.5487 53.4363C58.5757 52.7424 58.069 52.1664 57.4171 52.1496C56.7652 52.1329 56.2149 52.6818 56.1879 53.3757C56.1609 54.0695 56.6675 54.6456 57.3194 54.6624C57.9714 54.6791 58.5217 54.1302 58.5487 53.4363Z" fill="#3F3D56"/>
<path opacity="0.2" d="M53.3523 42.778C53.1969 42.6069 53.0567 42.427 52.9329 42.2396L56.052 41.905L52.6945 41.8395C52.3948 41.2618 52.2433 40.6404 52.2492 40.0135C52.2551 39.3865 52.4183 38.7672 52.7287 38.1932L57.1569 40.2075L53.1006 37.6199C53.5098 37.0819 54.0511 36.6183 54.6906 36.258C55.3301 35.8977 56.0541 35.6485 56.8175 35.5258C57.5808 35.4032 58.3671 35.4099 59.1271 35.5453C59.8871 35.6808 60.6046 35.9422 61.2348 36.3133C61.865 36.6843 62.3943 37.1569 62.7896 37.7017C63.185 38.2465 63.4379 38.8517 63.5326 39.4795C63.6273 40.1073 63.5618 40.7442 63.34 41.3505C63.1183 41.9568 62.7452 42.5194 62.244 43.0032C62.4857 43.2693 62.6911 43.556 62.8565 43.8582L58.7628 45.4552L63.1038 44.3938C63.3772 45.1271 63.4212 45.9042 63.2319 46.6547C63.0427 47.4053 62.6261 48.1057 62.0199 48.6924C62.6502 49.3875 63.027 50.2127 63.1075 51.0737C63.1879 51.9347 62.9686 52.7968 62.4747 53.5613C61.9808 54.3257 61.2322 54.9618 60.3146 55.3967C59.3969 55.8317 58.3471 56.0479 57.2854 56.0207C56.2237 55.9935 55.1928 55.7239 54.3106 55.2429C53.4285 54.7618 52.7307 54.0887 52.297 53.3004C51.8633 52.5121 51.7113 51.6406 51.8583 50.7854C52.0053 49.9302 52.4454 49.1259 53.1282 48.4645C52.3753 47.6338 51.9877 46.6215 52.0277 45.5902C52.0678 44.5588 52.5331 43.5684 53.349 42.778H53.3523Z" fill="#6C63FF"/>
<path opacity="0.1" d="M63.3444 45.8805C63.3058 46.9124 62.839 47.9034 62.0199 48.6924C62.6502 49.3875 63.0271 50.2127 63.1075 51.0737C63.1879 51.9347 62.9686 52.7968 62.4747 53.5613C61.9808 54.3257 61.2322 54.9618 60.3146 55.3967C59.3969 55.8317 58.3472 56.0479 57.2854 56.0207C56.2237 55.9935 55.1928 55.7239 54.3106 55.2429C53.4285 54.7618 52.7307 54.0887 52.297 53.3004C51.8633 52.5121 51.7113 51.6406 51.8583 50.7854C52.0053 49.9302 52.4454 49.1259 53.1282 48.4645C52.4031 47.6633 63.3643 45.3646 63.3444 45.8805Z" fill="black"/>
</g>
<path d="M17.4191 60.7167L18.5769 60.714H20.2094L22.2734 33.4587L42.7134 5.73227L41.8249 4.95708V2.99399L19.7193 32.8163L17.4191 60.7167Z" fill="#F1C0C0"/>
<path opacity="0.1" d="M18.7006 60.714H20.2094L22.2733 33.4587L42.7134 5.73226L41.8249 4.95708L20.7414 33.0433L18.7006 60.714Z" fill="black"/>
<path d="M14.0075 60.9437L66.9702 64.2383L67.0154 64.241L118.272 61.6785L118.31 61.6767V59.9173L61.8323 59.0749L14.7128 59.0381H14.3684L14.3309 59.2355L14.0075 60.9437Z" fill="#F1C0C0"/>
<path opacity="0.1" d="M14.0075 60.9437L66.9702 64.2383L67.0154 64.241L118.272 61.6785L118.31 61.6445V59.9541H118.265L66.9702 61.3466L14.7128 59.0381H14.7051L14.6124 59.0874L14.3309 59.2355L14.0075 60.9437Z" fill="black"/>
<path opacity="0.1" d="M14.0075 60.9437L66.9702 64.2383V61.3466L14.6124 59.0874L14.3309 59.2354L14.0075 60.9437Z" fill="black"/>
<path d="M41.8183 4.92029L65.1678 25.2923L64.4459 61.1268L66.4294 61.3214L66.4625 61.325H68.4459L68.6832 26.831L112.405 38.7028L113.143 59.8411L114.739 59.9864L115.28 60.0358L114.028 37.2368L68.3223 24.1932L43.2609 3.01462H41.8183V4.92029Z" fill="#F1C0C0"/>
<path opacity="0.1" d="M68.5033 26.1715L68.6832 26.831L112.405 38.7028L113.143 59.8411L114.739 59.9864L113.487 38.2632L68.5033 26.1715Z" fill="black"/>
<path d="M68.5883 40.5529L84.6244 43.1198L84.6299 43.1207L112.717 47.6184L114.002 47.1994L113.998 47.1258L113.914 45.6679L68.6048 38.2255L68.5883 40.5529Z" fill="#F1C0C0"/>
<path opacity="0.1" d="M84.6299 43.1207L112.717 47.6184L114.002 47.1994L113.998 47.1258L84.6299 43.1207Z" fill="black"/>
<path d="M85.7038 31.4525L86.1376 50.8627L86.3617 60.8208L88.3362 60.767L89.579 60.7329L89.1927 31.7333L88.3362 31.5019L88.1486 31.4525H85.7038Z" fill="#F1C0C0"/>
<path opacity="0.1" d="M85.7215 31.448V31.4525L86.1376 50.8627L86.3617 60.8208L88.3362 60.767V31.448H85.7215Z" fill="black"/>
<path d="M54.7739 36.4096C54.8897 36.4608 55.0005 36.5193 55.105 36.5845C55.2287 36.6725 55.3397 36.7715 55.4361 36.8797C55.9096 37.3777 56.3467 37.9564 56.3004 38.5844C56.3013 38.6758 56.2801 38.7664 56.2379 38.8511C56.1956 38.9358 56.1332 39.0129 56.0542 39.0779C55.8589 39.2134 55.5785 39.2196 55.3225 39.2196C55.0443 39.2196 54.7518 39.2196 54.5112 39.103C54.2706 38.9864 54.0697 38.7594 53.785 38.7648C53.7448 38.7702 53.7037 38.7702 53.6635 38.7648C53.5653 38.7387 53.5454 38.6338 53.4814 38.5674C53.3711 38.448 53.1382 38.4777 52.9649 38.5297C52.7916 38.5817 52.5995 38.6598 52.4285 38.5997C52.3291 38.5571 52.248 38.4911 52.1956 38.4104C51.7861 37.872 51.6989 37.2251 51.6216 36.5998C51.5742 36.2194 51.2122 34.922 52.211 35.2172C52.6525 35.3464 53.0653 35.6048 53.4671 35.7941L54.7739 36.4096Z" fill="#3F3D56"/>
<path d="M53.7872 36.5379C53.8764 36.59 53.9845 36.6164 54.0943 36.6129C54.2041 36.6093 54.3093 36.5759 54.3931 36.5181C54.5575 36.3974 54.6622 36.2322 54.6878 36.0534C54.7982 36.0256 54.8545 36.1431 54.9251 36.2149C55.0487 36.3369 55.3004 36.3351 55.413 36.4652C55.4913 36.5549 55.4737 36.6796 55.5289 36.781C55.6006 36.912 55.7783 36.9802 55.8997 37.0861C56.0144 37.2017 56.0972 37.3361 56.1425 37.4799L56.3235 37.9214C56.4102 38.1049 56.4658 38.2972 56.4891 38.4929C56.5005 38.5907 56.4879 38.6894 56.4518 38.7832C56.4158 38.877 56.3572 38.9641 56.2794 39.0393C56.0366 39.2519 55.6381 39.2744 55.286 39.2681C55.1684 39.2701 55.0511 39.2589 54.9372 39.2349C54.6249 39.1559 54.4251 38.9002 54.3423 38.6427C54.2596 38.3852 54.2684 38.1152 54.2198 37.8514C54.1674 37.5923 54.0746 37.3396 53.9439 37.0995C53.8468 36.9129 53.5797 36.6348 53.5841 36.4365C53.6635 36.4365 53.7209 36.4957 53.7872 36.5379Z" fill="#3F3D56"/>
<path d="M54.1834 35.629C54.1318 35.5016 54.1017 35.3691 54.094 35.2351C54.094 34.966 54.2452 34.713 54.3975 34.4725L53.1359 34.6116C52.9836 34.6286 52.8137 34.6537 52.7276 34.7569C52.6949 34.8081 52.6778 34.8648 52.6778 34.9225C52.6778 34.9801 52.6949 35.0369 52.7276 35.088C52.7908 35.1904 52.8411 35.2977 52.8777 35.4083C52.8805 35.5051 52.8942 35.6015 52.9185 35.6963C52.9578 35.7659 53.0128 35.8289 53.0808 35.882C53.4417 36.2068 53.7121 36.5899 53.9814 36.9694C53.9737 36.9587 54.7419 36.4751 54.711 36.3172C54.6933 36.2275 54.4715 36.1198 54.4008 36.0337C54.3032 35.9086 54.2299 35.7722 54.1834 35.629Z" fill="#BE6F72"/>
<path d="M65 32.1236V33.0074L46.3833 35.9592L45.4175 36.4347H42.0854V35.9368L60.3764 32.3443L65 32.1236Z" fill="#F1C0C0"/>
<path opacity="0.1" d="M65 33.0074L46.3833 35.9592L45.4175 36.4347H42.0854L60.5122 33.229L65 33.0074Z" fill="black"/>
<path d="M50.0532 57.2113C49.8458 57.0071 49.5595 56.866 49.2408 56.811C48.9222 56.7559 48.59 56.7901 48.2983 56.9081C48.2359 56.932 48.1808 56.9669 48.1371 57.0104C48.0268 57.136 48.0974 57.3091 48.1073 57.4643C48.1327 57.843 47.7619 58.1507 47.4285 58.4154C47.2497 58.5571 47.0676 58.7088 46.987 58.9017C46.9065 59.0946 46.9661 59.3395 47.1824 59.44C47.2768 59.4785 47.3795 59.5016 47.4848 59.5082C47.8376 59.5641 48.1994 59.5723 48.5555 59.5324C48.9075 59.4777 49.253 59.3153 49.4053 59.0515C49.4347 58.98 49.4834 58.9147 49.5477 58.8604C49.742 58.7357 50.04 58.8819 50.2607 58.7931C50.4428 58.7195 50.4506 58.6038 50.4528 58.4513C50.4594 58.0296 50.3821 57.5523 50.0532 57.2113Z" fill="#6C63FF"/>
<path d="M52.7022 57.1952C52.838 57.4859 52.8567 57.8026 52.8744 58.113C52.8843 58.2925 52.8909 58.4845 52.7717 58.6361C52.6525 58.7877 52.4196 58.8676 52.1967 58.9053C51.7364 58.9824 51.2033 58.9097 50.9064 58.6128C50.679 58.3858 50.6316 58.0745 50.6735 57.7802C50.7088 57.5388 50.7839 57.2562 50.5709 57.0848C50.5157 57.0391 50.4439 57.0068 50.3932 56.9574C50.2828 56.848 50.3005 56.6829 50.3601 56.5483C50.4377 56.4196 50.4959 56.2837 50.5333 56.1437C50.5422 56.0773 52.0278 56.1903 52.1647 56.2451C52.3512 56.3195 52.3225 56.4442 52.3788 56.595C52.4572 56.8049 52.6073 56.9942 52.7022 57.1952Z" fill="#6C63FF"/>
<path d="M52.9748 44.3059C53.2662 44.4593 53.3788 44.7608 53.424 45.0407C53.5488 45.8078 53.3302 46.583 53.3137 47.3573C53.2982 48.442 53.6845 49.5465 53.3545 50.5971C53.1569 51.2252 53.3247 51.943 53.1393 52.5773C53.0841 52.7657 52.9825 52.9433 52.9296 53.1318C52.8192 53.54 52.9351 53.9671 53.0907 54.3663C53.1404 54.4739 53.1719 54.5865 53.1845 54.701C53.177 54.8772 53.122 55.0499 53.0234 55.207L52.3611 56.4801C52.2872 56.6228 51.9958 56.6461 51.8093 56.665C51.4583 56.6991 51.0665 56.7233 50.7872 56.5465C50.508 56.3698 50.4406 56.0737 50.3976 55.7974C50.315 55.2669 50.2781 54.7323 50.2872 54.1976C50.2993 54.0581 50.2841 53.9179 50.242 53.7822C50.1813 53.6288 50.0477 53.496 50.0113 53.3336C49.9649 53.1237 50.0963 52.9173 50.1448 52.7056C50.1781 52.5122 50.1744 52.3158 50.1338 52.1233C50.0908 51.8362 50.0411 51.5491 49.9848 51.2638C49.9053 50.8645 50.019 50.4706 50.0952 50.0705C50.1669 49.6945 50.0753 49.3114 49.9848 48.9382C49.9926 49.2411 49.9461 49.5434 49.8468 49.8354C49.7883 49.9781 49.7044 50.1144 49.6537 50.2598C49.4274 50.9121 49.9097 51.5966 49.8413 52.2722C49.8093 52.588 49.657 52.9003 49.7 53.2116C49.7298 53.4395 49.8601 53.6485 49.9495 53.8657C50.0389 54.0828 50.0852 54.3313 49.9495 54.5341C49.5908 55.085 49.859 55.8341 50.1802 56.3994C50.2453 56.4996 50.3021 56.6033 50.3501 56.7098C50.445 56.9646 50.3656 57.2383 50.391 57.5038C50.2985 57.5161 50.2039 57.5111 50.1142 57.4892C50.0245 57.4673 49.9421 57.429 49.8733 57.3773C49.8248 57.3361 49.785 57.2876 49.7376 57.2446C49.6049 57.1418 49.448 57.0621 49.2762 57.0104C49.1753 56.9645 49.0605 56.943 48.9451 56.9485C48.8238 56.976 48.7147 57.0311 48.6305 57.1073C48.5213 57.1853 48.4055 57.257 48.2839 57.3217C48.2321 57.3541 48.1716 57.3759 48.1073 57.3854C48.075 57.3895 48.042 57.3852 48.0128 57.3731C47.9837 57.361 47.96 57.3418 47.9451 57.3181C47.9382 57.3032 47.9341 57.2874 47.933 57.2715C47.892 57.0006 47.8702 56.728 47.8678 56.455C47.8678 55.9858 47.1769 55.6628 47.0897 55.1989C47.0202 54.8248 47.1493 54.4435 47.1063 54.0666C47.0853 53.8728 47.0191 53.6826 47.0235 53.4888C47.0235 53.3632 47.0588 53.2403 47.0709 53.1156C47.0811 52.9772 47.0785 52.8383 47.0632 52.7002L47.029 52.2668C46.9959 51.8389 46.9595 51.4019 46.752 51.0108C46.5059 50.554 46.3602 50.0657 46.3215 49.568C46.2994 49.254 46.3138 48.94 46.2696 48.6251C46.2299 48.3407 46.1416 48.058 46.167 47.7727C46.1879 47.552 46.2774 47.3385 46.2983 47.1178C46.3414 46.6934 46.1427 46.2807 45.9871 45.8742C45.8314 45.4678 45.7167 45.0174 45.9208 44.6253C45.95 44.561 45.9986 44.5036 46.0621 44.4584C46.1404 44.4163 46.2295 44.3893 46.3226 44.3795C48.2163 44.0561 50.1574 43.9555 52.0863 44.0807C52.4008 44.0952 52.7059 44.1726 52.9748 44.3059Z" fill="#3F3D56"/>
<path d="M46.7089 34.7767C47.6855 34.7767 48.4771 34.1331 48.4771 33.3393C48.4771 32.5455 47.6855 31.902 46.7089 31.902C45.7324 31.902 44.9407 32.5455 44.9407 33.3393C44.9407 34.1331 45.7324 34.7767 46.7089 34.7767Z" fill="#BE6F72"/>
<path d="M46.3667 35.1346C46.3922 35.2168 46.3922 35.3028 46.3667 35.385C46.3389 35.4424 46.2998 35.4957 46.2508 35.5429C46.0797 35.7224 45.8903 35.8898 45.6846 36.0435C45.7894 36.2337 45.978 36.3851 46.2133 36.4679C46.4469 36.5487 46.692 36.6057 46.9429 36.6375C47.0681 36.6642 47.1984 36.6715 47.327 36.659C47.4455 36.6348 47.5576 36.5935 47.6581 36.537L48.6404 36.0588C48.7886 35.9935 48.9259 35.913 49.0488 35.8192C49.229 35.6687 49.3309 35.4676 49.3336 35.2576C49.3381 35.22 49.3256 35.1823 49.2982 35.1517C49.2606 35.1251 49.2134 35.109 49.1636 35.1059C48.8181 35.044 48.5455 34.8161 48.391 34.5577C48.2513 34.2929 48.1609 34.0126 48.1228 33.726L47.0753 34.1746C46.9197 34.2419 46.7652 34.3092 46.604 34.3675C46.5014 34.4052 46.2939 34.4366 46.221 34.5129C46.082 34.6537 46.3303 34.9651 46.3667 35.1346Z" fill="#BE6F72"/>
<path d="M45.6913 35.7824C45.5422 35.8818 45.4257 36.0098 45.3525 36.1548C45.284 36.3342 45.3525 36.5235 45.4143 36.7012C45.7039 37.4584 45.9253 38.2317 46.0765 39.0151C46.1692 39.5534 46.2034 40.0998 46.2487 40.6444C46.3414 41.7551 46.4761 43.5262 46.656 44.6298C47.3182 44.654 47.9639 44.497 48.6206 44.4396C49.848 44.3337 51.1117 44.576 52.3137 44.3499C52.0223 43.4141 51.7309 41.8162 51.4396 40.8813C51.3106 40.5129 51.2212 40.1362 51.1725 39.7553C51.1471 39.4816 51.1625 39.2071 51.1669 38.9316C51.1769 38.3933 51.1404 37.855 51.104 37.3167C51.0621 36.6886 51.0201 36.0606 50.8369 35.446C50.8242 35.3677 50.779 35.2952 50.7089 35.2405C50.5985 35.175 50.455 35.1984 50.3237 35.2127C49.9215 35.2542 49.5145 35.1758 49.178 34.992C49.0323 34.9112 48.8369 34.8126 48.7012 34.9023C48.6433 34.9564 48.605 35.0226 48.5908 35.0934C48.5307 35.2203 48.438 35.3353 48.3189 35.4308C48.1997 35.5263 48.0569 35.6 47.8999 35.647C47.5853 35.7396 47.2559 35.7946 46.922 35.8102C46.8198 35.8281 46.7132 35.8183 46.6184 35.7824C46.4617 35.7044 46.4507 35.4236 46.2531 35.4047C46.0798 35.3886 45.8083 35.6918 45.6913 35.7824Z" fill="#3F3D56"/>
<path d="M48.3027 37.9734C47.8955 37.6567 47.7167 37.1973 47.4198 36.807C47.2176 36.5446 46.9593 36.3137 46.6571 36.1252C46.5052 36.0436 46.3658 35.9475 46.2421 35.839C46.1372 35.734 46.0578 35.594 45.8988 35.5536C45.8331 35.542 45.765 35.5436 45.7002 35.5581C45.6354 35.5726 45.5759 35.5997 45.5269 35.6371C45.4296 35.7125 45.3374 35.7921 45.2509 35.8757C44.7829 36.2696 43.9607 36.3243 43.5898 36.7801C43.4897 36.8768 43.4217 36.9926 43.3922 37.1166C43.2855 37.78 43.4965 38.4513 43.9816 38.9917C44.0756 39.117 44.2198 39.2121 44.39 39.2609C44.3669 39.4282 44.3942 39.5975 44.4695 39.7544C44.6738 40.3222 44.925 40.8782 45.2211 41.4187C45.1503 41.6301 45.1008 41.8458 45.0732 42.0638C44.996 42.612 45.0677 43.1682 44.9949 43.7173C44.9353 44.1659 44.7741 44.6029 44.7686 45.0524C44.7686 45.1242 44.7763 45.2094 44.8525 45.2462C44.893 45.2631 44.9384 45.2708 44.9838 45.2686L46.3414 45.3018C47.1295 45.3206 47.9253 45.3395 48.7012 45.2211C48.8045 45.2086 48.9048 45.1829 48.9981 45.1448C49.2608 45.0255 49.348 44.7563 49.3899 44.5167C49.4447 44.206 49.4665 43.892 49.455 43.5783C49.6195 44.0009 49.8149 44.4378 50.3116 44.6208C50.5742 44.7177 50.8745 44.7105 51.1625 44.7043C51.7834 44.6818 52.4022 44.63 53.0157 44.549C53.0535 44.5529 53.0919 44.5494 53.1278 44.539C53.1637 44.5286 53.196 44.5115 53.2223 44.4891C53.2486 44.4667 53.2681 44.4396 53.2791 44.4099C53.2902 44.3803 53.2926 44.349 53.2861 44.3185L53.2927 43.8286C53.306 42.8336 53.0025 41.8825 52.8844 40.892C52.8468 40.5798 52.8501 40.264 52.7563 39.958C52.7177 39.8297 52.6614 39.7041 52.6272 39.5749C52.5977 39.4484 52.5793 39.3204 52.572 39.1918L52.4859 38.2049C52.4451 37.7482 52.3866 37.3077 52.3435 36.8519C52.3199 36.4081 52.2407 35.9674 52.1073 35.5366C52.0113 35.2674 51.8115 34.9624 51.4661 34.9292C51.2817 34.9121 51.1029 34.9776 50.9274 35.0234C50.4961 35.1338 50.0332 35.1322 49.603 35.0189C49.47 34.9762 49.3315 34.9461 49.1902 34.9292C49.119 34.9213 49.0465 34.929 48.9802 34.9513C48.9139 34.9737 48.8561 35.0101 48.8127 35.0566C48.7698 35.1267 48.7497 35.2045 48.7542 35.2827C48.7023 36.179 48.6063 37.1022 48.3027 37.9734Z" fill="#6C63FF"/>
<path d="M46.5268 38.0003C46.018 37.5643 45.4959 37.1202 44.8403 36.8429C44.582 36.7335 44.2884 36.6509 44.0026 36.6922C43.7167 36.7335 43.4507 36.9353 43.4639 37.1713C43.4728 37.3176 43.582 37.4468 43.6163 37.5903C43.656 37.7518 43.5986 37.9241 43.6604 38.0802C43.7106 38.1831 43.7857 38.2767 43.8812 38.3556L44.6626 39.1084C44.9937 39.4224 45.3248 39.7409 45.7509 39.958C46.1769 40.1752 46.7288 40.2765 47.1968 40.1222C47.5297 39.9964 47.8066 39.7899 47.9893 39.531C48.1835 39.2797 48.3204 39.0052 48.5025 38.7459C48.7859 38.3316 49.16 37.9628 49.6062 37.6576C49.3766 37.6091 49.0886 37.541 48.944 37.3884C48.9028 37.3399 48.8677 37.2882 48.8391 37.2341L48.6603 36.9201C48.5995 36.9175 48.5387 36.9252 48.4817 36.9426C48.4247 36.9601 48.3728 36.9869 48.3292 37.0215C48.2525 37.0935 48.1703 37.1615 48.0831 37.2251C47.9274 37.3202 47.7166 37.3463 47.5754 37.4548C47.5207 37.5014 47.4712 37.5519 47.4275 37.6056C47.3206 37.7197 47.185 37.814 47.0296 37.8821C46.8743 37.9502 46.7029 37.9905 46.5268 38.0003Z" fill="#3F3D56"/>
<path d="M49.6471 36.1243C50.03 35.5563 50.0124 34.8754 50.1217 34.2339C50.1335 34.064 50.2068 33.9007 50.3325 33.7646C50.5532 33.5618 50.9428 33.5592 51.2762 33.5852C51.3744 33.5941 51.4969 33.6318 51.4914 33.7117C51.4836 33.7403 51.4665 33.7667 51.4417 33.7879C51.1186 34.1269 50.9286 34.5371 50.8965 34.9651C51.0698 35.0629 51.338 34.8619 51.5046 34.9651C51.615 35.0404 51.5642 35.1894 51.498 35.297C51.3442 35.5465 51.1857 35.7941 51.0223 36.0399C50.8919 36.2566 50.7218 36.456 50.5179 36.6312C50.3777 36.7406 50.2133 36.8268 50.0709 36.9344C49.7398 37.1866 49.54 37.5428 49.1978 37.7886C49.1689 37.814 49.1298 37.8303 49.0875 37.8343C49.0439 37.8318 49.0029 37.8169 48.9716 37.7922C48.8006 37.6792 48.6589 37.5398 48.5544 37.3822C48.4241 37.1866 48.444 37.1291 48.6493 36.991C49.0334 36.7442 49.4075 36.4796 49.6471 36.1243Z" fill="#BE6F72"/>
<path d="M45.8866 37.6145C45.9528 37.6477 46.0345 37.6854 46.1074 37.6576C46.1371 37.643 46.1624 37.623 46.1813 37.5993C46.3075 37.4624 46.4128 37.3136 46.4948 37.1561C46.5089 37.1338 46.5168 37.1093 46.518 37.0843C46.518 37.0269 46.455 36.9847 46.3965 36.9515C46.0831 36.7891 45.7461 36.6589 45.3932 36.5639C45.1019 36.4742 44.7972 36.3961 44.4882 36.4185C44.3721 36.4249 44.2587 36.4502 44.155 36.4931C44.0512 36.536 43.9592 36.5955 43.8844 36.668C43.6637 36.8986 44.0335 36.9685 44.2652 37.052C44.8016 37.2503 45.3822 37.3651 45.8866 37.6145Z" fill="#6C63FF"/>
<path opacity="0.1" d="M45.5389 39.1398C45.5352 39.1603 45.5375 39.1812 45.5455 39.2008C45.5536 39.2204 45.5672 39.2383 45.5853 39.2528C45.6173 39.1254 45.5754 38.9908 45.6085 38.8625C45.6571 38.6696 45.8877 38.5243 45.9076 38.3305C45.4849 38.2632 45.5423 38.9316 45.5389 39.1398Z" fill="black"/>
<path opacity="0.2" d="M65 32.1236V33.0074L60.5122 33.229L60.3765 32.3443L65 32.1236Z" fill="black"/>
<path d="M45.1173 33.5529C45.3977 33.3672 45.2354 32.9778 45.4253 32.7283C45.5356 32.592 45.7222 32.5202 45.9054 32.4592C46.1265 32.3751 46.3634 32.3217 46.6063 32.3013C46.7279 32.2918 46.8506 32.3047 46.9652 32.339C47.0799 32.3733 47.1835 32.4282 47.2685 32.4996C47.3402 32.5659 47.3888 32.6467 47.4561 32.7158C47.5395 32.7964 47.6482 32.8571 47.7706 32.8916C47.893 32.926 48.0247 32.9328 48.1515 32.9114C48.2983 32.8845 48.4506 32.7938 48.4407 32.6718C48.4241 32.5976 48.3775 32.53 48.3082 32.4798L47.9925 32.1954C47.6338 31.8724 47.2354 31.5297 46.7089 31.4489C46.3425 31.3924 45.9672 31.4723 45.614 31.5683C45.4716 31.6068 45.3116 31.6643 45.2719 31.7818C45.2454 31.8625 45.2851 31.9505 45.2619 32.0321C45.2167 32.1945 44.9606 32.2492 44.8414 32.3856C44.7222 32.522 44.7586 32.6835 44.7244 32.8342C44.6902 32.9849 44.5908 33.1321 44.5787 33.2882C44.571 33.3824 44.6295 33.5574 44.7597 33.5915C44.89 33.6255 45.0368 33.4407 45.1173 33.5529Z" fill="#3F3D56"/>
<path d="M48.3336 32.5426C48.2405 32.1479 48.0399 31.7751 47.7464 31.4516C47.4855 31.1494 47.1224 30.9151 46.7012 30.7769C46.4906 30.71 46.2641 30.6828 46.0388 30.6972C45.8134 30.7117 45.595 30.7675 45.3999 30.8604C45.1103 31.0284 44.885 31.2595 44.7498 31.527C44.4639 32.0276 44.358 32.6395 44.6902 33.1204C44.8226 32.9894 45.05 33.0486 45.2509 33.0011C45.5025 32.9428 45.7156 32.8064 45.9551 32.7212C46.678 32.4619 47.561 32.6718 48.3336 32.5426Z" fill="#FED253"/>
<path opacity="0.1" d="M44.8591 32.5148C44.8337 32.3533 44.8171 32.1658 44.9584 32.0509C44.9654 32.0439 44.9744 32.0383 44.9845 32.0346C44.9947 32.0308 45.0058 32.0291 45.0169 32.0294C45.0267 32.032 45.0358 32.0362 45.0436 32.0418C45.0514 32.0473 45.0577 32.0541 45.0621 32.0617C45.1437 32.1663 45.2132 32.2769 45.2697 32.3919C45.1874 32.3765 45.1013 32.3815 45.0226 32.4063C44.9439 32.4311 44.8762 32.4745 44.8282 32.5309" fill="black"/>
<path opacity="0.1" d="M47.4385 32.059L47.3987 31.7387C47.3923 31.7123 47.395 31.685 47.4065 31.6598C47.4231 31.6386 47.4488 31.6233 47.4785 31.6166C47.5083 31.61 47.54 31.6126 47.5676 31.6239C47.6219 31.6483 47.6667 31.6847 47.6967 31.7288C47.7886 31.8435 47.8649 31.9659 47.9241 32.094C47.7463 32.0662 47.5635 32.068 47.3866 32.0994" fill="black"/>
<path opacity="0.1" d="M48.4263 45.0587V45.7908L47.6658 45.8321H43.6659V45.0587H48.4263Z" fill="black"/>
<path d="M48.4263 45.0587V45.8321H43.6659L31.0193 32.9544V32.3461H33.6705L48.4263 45.0587Z" fill="#F1C0C0"/>
<path opacity="0.1" d="M48.4263 45.0587V45.8321H43.6659L31.0193 32.9544V32.3461H33.6705L48.4263 45.0587Z" fill="black"/>
<path opacity="0.1" d="M48.4263 45.0587V45.8321H43.6659L31.0193 32.9544V32.3461L43.7344 45.0587H48.4263Z" fill="black"/>
<path d="M32.6772 57.9659C32.6855 58.0023 32.6845 58.0397 32.6742 58.0757C32.6639 58.1118 32.6446 58.1458 32.6175 58.1755C32.5904 58.2052 32.556 58.2301 32.5165 58.2485C32.477 58.2669 32.4332 58.2785 32.388 58.2826C32.0811 58.3669 31.7555 58.4504 31.5381 58.6415C31.3207 58.8326 31.2776 59.187 31.5381 59.3422C31.6712 59.4075 31.8241 59.4413 31.9796 59.44C32.4796 59.4678 33.0005 59.4624 33.4542 59.2902C33.7787 59.1682 34.0844 58.96 34.4409 58.9788C34.6252 58.9878 34.8217 59.0578 34.9862 58.9896C35.1506 58.9214 35.197 58.7312 35.1981 58.5724C35.2023 58.2409 35.1408 57.911 35.016 57.5953C34.9994 57.5523 34.2974 57.5191 34.2136 57.5056L33.3626 57.4159C33.2014 57.3988 32.8538 57.3002 32.7268 57.4096C32.5999 57.5191 32.6772 57.8358 32.6772 57.9659Z" fill="#6C63FF"/>
<path d="M37.7555 55.7265C37.7915 55.888 37.85 56.0458 37.9299 56.1966C38.048 56.4406 38.1992 56.6999 38.4883 56.8184C38.751 56.9251 39.0733 56.8865 39.3404 56.7852C39.4519 56.7476 39.5496 56.6874 39.6241 56.6102C39.7102 56.4881 39.7487 56.3476 39.7345 56.2074C39.7345 55.8601 39.7091 55.5013 39.5137 55.1926C39.3459 54.9235 39.0535 54.692 39.049 54.3941L38.0435 54.552C37.9897 54.5562 37.9384 54.5727 37.8956 54.5996C37.8638 54.6269 37.8416 54.6607 37.8316 54.6974C37.7243 55.0331 37.6984 55.3827 37.7555 55.7265Z" fill="#6C63FF"/>
<path d="M25.7479 47.203C25.706 47.4919 25.7236 47.8014 25.9091 48.0508C26.0945 48.3003 26.4852 48.4654 26.8229 48.3658C26.8403 48.3622 26.8565 48.3558 26.8707 48.347C26.8849 48.3382 26.8968 48.3272 26.9057 48.3146C26.9147 48.2843 26.9096 48.2523 26.8914 48.2249C26.7423 47.9014 26.7546 47.5434 26.9256 47.2272C26.9477 47.1859 26.9951 47.1375 27.047 47.1536C27.0687 47.1626 27.0862 47.1771 27.0967 47.1949C27.1501 47.2701 27.1769 47.3558 27.1739 47.4425C27.1584 47.5211 27.1554 47.6011 27.1651 47.6803C27.1861 47.7575 27.2876 47.8301 27.3759 47.7969C27.4014 47.7842 27.4235 47.7674 27.4408 47.7475C27.4581 47.7276 27.4702 47.705 27.4764 47.6812C27.7225 47.1025 27.611 46.47 27.4984 45.8644C27.4994 45.8505 27.4965 45.8365 27.4901 45.8236C27.4838 45.8107 27.4739 45.7991 27.4614 45.7896C27.4489 45.7801 27.4339 45.7729 27.4176 45.7687C27.4014 45.7644 27.3841 45.763 27.3671 45.7648C26.8461 45.7226 26.5614 45.6212 26.2633 46.0151C26.0073 46.3471 25.7479 46.8037 25.7479 47.203Z" fill="#6C63FF"/>
<path d="M31.8383 45.7307C31.6838 46.2529 31.5282 46.7813 31.5182 47.3178C31.521 47.652 31.5519 47.9857 31.611 48.3164L31.7269 49.0934C31.7666 49.3554 31.8052 49.6165 31.8615 49.8758C31.8974 50.0094 31.917 50.1455 31.92 50.2822C31.9092 50.417 31.8829 50.5506 31.8416 50.6815C31.7722 50.9562 31.7335 51.2355 31.7258 51.5159C31.7136 51.9645 31.782 52.4131 31.8251 52.8617C31.911 53.7556 31.8981 54.654 31.7865 55.5461C31.7419 55.7869 31.8062 56.0327 31.9675 56.2379C32.0329 56.3026 32.0868 56.3745 32.1275 56.4514C32.2103 56.6569 32.0171 56.8623 31.9675 57.0732C31.9357 57.2376 31.9855 57.4055 32.106 57.5401C32.2264 57.6747 32.4076 57.7649 32.6098 57.7909C33.4928 57.8762 34.4001 57.8376 35.1959 58.166C35.2798 57.9668 35.0966 57.7407 35.1804 57.5379C35.2334 57.4123 35.3791 57.3307 35.4784 57.2248C35.6119 57.0635 35.6784 56.8717 35.6683 56.6775C35.6722 56.424 35.6168 56.1722 35.5049 55.9355C35.4111 55.7381 35.2765 55.5434 35.2842 55.3317C35.2842 55.2276 35.3294 55.1182 35.2776 55.0222C35.242 54.967 35.1936 54.9179 35.1352 54.8777C34.8053 54.5839 34.6026 54.2106 34.5579 53.8145C34.5149 53.4215 34.5305 53.0256 34.6043 52.6356C34.6584 52.2641 34.7312 51.8721 35.0215 51.5823C34.8869 50.7035 34.966 49.8119 35.2544 48.9579C35.2831 48.879 35.3283 48.7875 35.4277 48.7686C35.4671 48.7653 35.507 48.7698 35.5439 48.7817C35.5808 48.7936 35.6136 48.8125 35.6396 48.8368C35.8129 48.9687 35.8957 49.1598 35.9707 49.3428C36.0535 49.5411 36.1374 49.7529 36.0745 49.9556C36.048 50.0453 35.995 50.1243 35.9641 50.2104C35.8969 50.3835 35.9087 50.5705 35.9972 50.7371C36.0403 50.798 36.0674 50.8655 36.0767 50.9354C36.0664 50.9954 36.0441 51.0536 36.0104 51.1076C35.9695 51.2138 35.9565 51.3258 35.9723 51.4363C35.9881 51.5468 36.0323 51.6534 36.1021 51.7491C36.2427 51.9397 36.4163 52.1128 36.6175 52.2632C36.5214 52.6076 36.5462 52.967 36.6892 53.3004C36.6996 53.3154 36.7061 53.332 36.7086 53.349C36.7111 53.3661 36.7094 53.3835 36.7036 53.4C36.6837 53.4341 36.633 53.4467 36.5932 53.4709C36.4828 53.5445 36.5513 53.6835 36.6252 53.7795C36.8279 54.043 37.0517 54.2954 37.2952 54.535C37.5159 54.7494 37.4961 55.163 37.825 55.2402C37.9632 55.2644 38.1062 55.2644 38.2444 55.2402C38.5689 55.1998 38.9309 55.1235 39.0899 54.8903C39.155 54.7943 39.1815 54.6776 39.283 54.6058C39.3846 54.5341 39.5159 54.5215 39.5722 54.4354C39.6285 54.3492 39.5656 54.2362 39.5843 54.1366C39.6031 54.037 39.7102 53.9572 39.7444 53.8522C39.8261 53.6099 39.4784 53.4108 39.4309 53.1631C39.3625 52.8043 39.9188 52.5351 39.8956 52.1762C39.847 51.3965 39.8161 50.6133 39.7665 49.8336C39.7041 49.1352 39.6953 48.4343 39.74 47.735C39.7786 47.2999 39.8503 46.8441 39.6539 46.4395C39.3713 45.8688 38.5921 45.5485 37.8382 45.4875C37.0844 45.4265 36.3327 45.5719 35.5855 45.667C34.3454 45.8223 33.0854 45.8438 31.8383 45.7307Z" fill="#3F3D56"/>
<path d="M34.0789 37.1552C35.0554 37.1552 35.8471 36.5117 35.8471 35.7178C35.8471 34.924 35.0554 34.2805 34.0789 34.2805C33.1023 34.2805 32.3107 34.924 32.3107 35.7178C32.3107 36.5117 33.1023 37.1552 34.0789 37.1552Z" fill="#FBBEBE"/>
<path d="M33.3593 37.4234C33.2992 37.5371 33.1982 37.6334 33.0696 37.6995C32.9409 37.7656 32.7907 37.7986 32.6385 37.794C32.5745 38.0093 32.728 38.2264 32.9034 38.396C33.2679 38.7407 33.7388 39.0002 34.2677 39.1476C34.7966 39.2951 35.3642 39.3252 35.9122 39.2349C36.1255 39.2039 36.3278 39.1353 36.5049 39.0339C36.7438 38.8718 36.9041 38.6461 36.9575 38.3969C37.0083 38.1494 37.0227 37.898 37.0005 37.6477C37.0067 37.5983 36.9893 37.5489 36.9519 37.5096C36.9078 37.4818 36.8532 37.4672 36.7974 37.4683C36.4244 37.4414 36.0347 37.4297 35.7069 37.2808C35.3791 37.1318 35.1462 36.7954 35.3041 36.519C35.2787 36.5621 34.6341 36.5827 34.5491 36.5917C34.2831 36.6222 34.0171 36.6563 33.7522 36.6958C33.6249 36.7015 33.4991 36.7208 33.3781 36.7532C33.218 36.8205 33.2776 36.7873 33.3151 36.9093C33.3714 37.0959 33.4542 37.2296 33.3593 37.4234Z" fill="#FBBEBE"/>
<path d="M34.7047 38.2973C34.4666 38.2995 34.229 38.2781 33.9972 38.2336C33.7632 38.1892 33.557 38.0773 33.4167 37.9187C33.335 37.8182 33.282 37.6917 33.1518 37.6352C32.9388 37.5454 32.6959 37.6971 32.526 37.8361C32.3712 37.9733 32.1918 38.0906 31.994 38.1843C31.7578 38.2856 31.4818 38.3215 31.2589 38.4409C31.0847 38.5478 30.9352 38.6791 30.8174 38.8285L29.2534 40.5601C28.6254 41.2563 28.079 42.0037 27.5194 42.7385C27.0349 43.3746 26.781 44.1067 26.4157 44.7931C26.3867 44.8351 26.3748 44.8834 26.3815 44.9313C26.3947 44.9779 26.4642 45.0156 26.5128 44.9887C26.3484 45.1215 26.4929 45.3476 26.4543 45.5342C26.4104 45.6648 26.3188 45.7814 26.1916 45.8688C26.4346 45.8431 26.6812 45.8525 26.9201 45.8967C27.167 45.9535 27.4 46.0446 27.6088 46.1658C27.7424 46.1488 27.7302 45.9559 27.8296 45.8841C27.8892 45.8419 27.9775 45.8473 28.0558 45.8347C28.3505 45.7881 28.4675 45.5001 28.6938 45.3377C28.8825 45.2022 29.1496 45.1582 29.3494 45.0308C29.6739 44.8236 29.7434 44.4548 29.9134 44.1489C30.058 43.8896 30.2854 43.6635 30.4123 43.3979C30.4951 43.2257 30.5348 43.039 30.6529 42.8802C30.8417 42.6236 31.1971 42.4873 31.5359 42.3643C31.75 42.2863 31.9774 42.2055 32.2081 42.2181C32.1959 42.6353 32.1308 43.0462 32.2423 43.4536C32.2809 43.5971 32.335 43.7371 32.3814 43.8797C32.5922 44.5221 32.6418 45.1914 32.6518 45.8536C33.1589 45.7593 33.6768 45.7087 34.197 45.7029C34.6065 45.693 35.0149 45.7361 35.4244 45.7298C35.91 45.7226 36.3901 45.6463 36.8758 45.6194C37.3614 45.5925 37.8691 45.6194 38.2985 45.7989C38.2636 45.2302 38.2832 44.6603 38.357 44.0942L38.474 43.2023C38.5004 42.9432 38.5494 42.686 38.6208 42.4325C38.6848 42.228 38.7775 42.0306 38.8481 41.8269C39.0965 41.1092 39.0512 40.3429 39.0038 39.5956C38.9795 39.2116 38.7974 38.8338 38.5833 38.492C38.5058 38.365 38.4172 38.2427 38.3184 38.1259C38.0596 37.8361 37.7148 37.6043 37.316 37.4522C36.9173 37.3 36.4776 37.2324 36.038 37.2556C35.9819 37.2571 35.9265 37.2668 35.8747 37.2844C35.7815 37.3328 35.7088 37.4033 35.6661 37.4862C35.4377 37.8199 35.1064 38.0994 34.7047 38.2973Z" fill="#3F3D56"/>
<path d="M32.5238 36.1943C32.5734 36.1045 32.707 36.0713 32.7887 35.9996C32.9454 35.8632 32.8747 35.6452 32.899 35.4612C32.9388 35.1921 33.2136 34.9669 33.5282 34.8709C33.8489 34.7872 34.1903 34.7696 34.5215 34.8197C34.681 34.8292 34.835 34.8708 34.9696 34.9409C35.027 34.9749 35.08 35.0189 35.1341 35.0503C35.2327 35.0987 35.3506 35.1139 35.4628 35.0927C35.575 35.0714 35.6725 35.0153 35.7345 34.9364C35.3438 34.5542 34.9111 34.1504 34.3173 34.0329C34.1136 33.9991 33.906 33.9831 33.6981 33.9853C33.4233 33.9808 33.1396 33.9773 32.8858 34.0625C32.5403 34.1782 32.2975 34.4447 32.1728 34.7318C32.0637 35.0228 32.0054 35.3248 31.9995 35.629C31.9769 35.832 31.9769 36.0362 31.9995 36.2391C32.0422 36.5163 32.1688 36.7805 32.3681 37.008C32.3951 37.0434 32.4332 37.0722 32.4785 37.0915C32.9818 37.2709 32.4829 36.2687 32.5238 36.1943Z" fill="#3F3D56"/>
<path d="M35.6771 34.7148C35.6164 34.2922 35.2455 33.9432 34.8515 33.6623C34.5339 33.4188 34.1556 33.2337 33.7422 33.1195C33.3261 33.0199 32.8471 33.0415 32.4906 33.2433C32.2036 33.4057 32.0215 33.6641 31.8813 33.9243C31.6972 34.2314 31.606 34.5697 31.6153 34.9113C31.6429 35.2504 31.846 35.594 32.208 35.7654C32.3383 35.6093 32.5645 35.5285 32.782 35.4648C33.7297 35.1726 34.6961 34.9222 35.6771 34.7148Z" fill="#FED253"/>
<path opacity="0.1" d="M32.3295 34.5389C32.3648 34.5389 32.388 34.5685 32.4056 34.5927C32.4955 34.7066 32.5727 34.8267 32.6363 34.9516C32.5072 34.9741 32.2853 34.9992 32.2213 34.9068C32.1871 34.8601 32.2279 34.5344 32.3295 34.5389Z" fill="black"/>
<path opacity="0.1" d="M34.8449 34.3361C34.8184 34.3568 34.7875 34.3146 34.7875 34.2841V33.936C34.7868 33.9263 34.7895 33.9167 34.7952 33.9082C34.7998 33.9039 34.8054 33.9004 34.8116 33.898C34.8179 33.8955 34.8247 33.8941 34.8317 33.8938C34.9211 33.8857 34.995 33.9476 35.0524 34.0069C35.1395 34.1028 35.2153 34.2053 35.2787 34.3128L34.8118 34.3011" fill="black"/>
<path d="M40.6715 40.1007C40.7731 40.0223 40.8815 39.95 40.996 39.8845C41.3017 39.7185 41.6715 39.653 42.0147 39.5471C42.358 39.4412 42.7068 39.2699 42.8403 38.9917C42.9072 38.8178 42.929 38.6345 42.9043 38.4534C42.9075 38.3776 42.891 38.3021 42.8558 38.2318C42.8138 38.1697 42.7539 38.1168 42.6814 38.0775C42.2156 37.7976 41.5909 37.7751 41.0125 37.8038C39.7374 37.8681 38.4876 38.1217 37.325 38.5521C37.2635 38.5686 37.2096 38.5999 37.1704 38.6418C37.1478 38.6807 37.1376 38.7236 37.1406 38.7665C37.1201 39.0311 37.1624 39.2965 37.2654 39.548C37.4177 39.8674 37.7311 40.1249 37.8625 40.4506C37.9221 40.5968 37.942 40.7521 37.9938 40.8992C38.0364 41.0512 38.1469 41.1848 38.304 41.2742C38.74 41.486 39.1516 41.2016 39.4541 40.9809L40.6715 40.1007Z" fill="#3F3D56"/>
<path d="M34.9619 41.3433L34.4023 40.351C34.3202 40.2135 34.2494 40.0717 34.1904 39.9266C34.1264 39.7535 34.0954 39.574 34.0358 39.4C33.8394 38.8204 33.3438 38.3377 33.1021 37.7698C33.0868 37.7185 33.0557 37.6712 33.0116 37.6325C32.9763 37.6122 32.936 37.5985 32.8934 37.5923C32.8509 37.5861 32.8072 37.5875 32.7655 37.5966C32.4277 37.6441 32.1639 37.8532 31.8549 37.9716C31.7114 38.0255 31.5569 38.0613 31.4134 38.1232C31.3417 38.1509 31.2781 38.1907 31.2271 38.2401C31.176 38.2895 31.1387 38.3473 31.1176 38.4095C31.0834 38.5467 31.1672 38.6786 31.2379 38.8123C31.5381 39.3632 31.6065 39.9787 31.6198 40.5816C31.6297 40.9871 31.6043 41.4223 31.3096 41.748C30.7434 42.376 31.1054 43.2983 31.3173 44.0583C31.3427 44.148 31.3725 44.2449 31.3902 44.34C31.4089 44.459 31.4174 44.5789 31.4156 44.6989C31.4156 45.1017 31.388 45.5171 31.1805 45.8823C31.3853 45.9709 31.6111 46.0229 31.8427 46.0348C32.4836 46.1012 33.1271 46.1479 33.7732 46.1748C33.9756 46.1903 34.1797 46.1818 34.3791 46.1497C34.6159 46.0976 34.8247 45.983 34.9724 45.8237C35.1201 45.6645 35.1984 45.4698 35.1948 45.2704C35.2301 45.5189 35.2952 45.789 35.5171 45.9613C35.7389 46.1335 36.0623 46.1595 36.3636 46.173C37.214 46.2097 38.0667 46.1902 38.9133 46.1147C38.9673 46.1127 39.0204 46.1027 39.07 46.0851C39.2333 46.0187 39.2422 45.8356 39.2289 45.6885C39.2046 45.4131 39.1793 45.1376 39.1384 44.864C39.1038 44.6895 39.0861 44.5131 39.0854 44.3364C39.1023 44.1546 39.1392 43.9745 39.1958 43.7981C39.3437 43.2382 39.4607 42.6667 39.411 42.0934C39.3914 41.9537 39.3844 41.8131 39.3901 41.6726C39.4188 41.3559 39.6241 41.0544 39.5854 40.7395C39.4751 39.8136 39.3857 38.8634 39.0678 37.9698C39.0104 37.8101 38.9375 37.6388 38.7665 37.5472C38.5457 37.427 38.2356 37.4898 37.9828 37.4136C37.8642 37.3687 37.7514 37.3143 37.6462 37.2512C37.4174 37.1349 37.1553 37.0693 36.8857 37.061C36.6826 37.0547 36.4563 37.0915 36.3338 37.2242C36.2771 37.299 36.2395 37.3823 36.2235 37.4692C36.0634 38.0165 35.8758 38.5575 35.6881 39.0985L35.5082 39.6171L35.0259 41.0096C34.9784 41.1576 35.0104 41.2034 34.9619 41.3433Z" fill="#6C63FF"/>
<path d="M37.7842 35.9107L48.4606 45.0309V45.8042H43.7002L35.6771 37.2924" fill="#F1C0C0"/>
<path opacity="0.1" d="M37.7842 35.9107L48.4606 45.0309V45.8042H43.7002L35.6771 37.2924" fill="black"/>
<path opacity="0.1" d="M35.8471 37.1722L35.8813 37.1821L43.7686 45.0309H48.4606V45.8042H43.7002L35.6771 37.2924L35.8471 37.1722Z" fill="black"/>
<path d="M37.0755 37.3642C36.6892 37.5015 36.2599 37.6773 36.144 38.0075C36.1211 38.0655 36.1162 38.1271 36.1296 38.187C36.1579 38.2573 36.2117 38.3191 36.284 38.3641C36.3563 38.4091 36.4437 38.4353 36.5347 38.4391C36.7165 38.4426 36.8972 38.4158 37.0656 38.3601L39.3448 37.7482C39.4066 37.7321 39.4773 37.7078 39.4927 37.6585C39.4967 37.6275 39.489 37.5962 39.4706 37.5688C39.4 37.4288 39.3305 37.1426 39.1826 37.0448C39.0612 36.9659 38.8205 36.9937 38.6737 36.9955C38.1086 36.999 37.5777 37.1848 37.0755 37.3642Z" fill="#6C63FF"/>
<path d="M39.1075 37.8209C39.4914 37.82 39.8732 37.8681 40.2388 37.9636C40.606 38.0605 40.9313 38.2411 41.1759 38.4839C41.2471 38.5518 41.2978 38.6323 41.3238 38.719C41.3458 38.8087 41.7057 38.8626 41.6262 38.9236C41.8679 38.8922 41.8105 38.9846 42.0555 38.9828C42.3006 38.981 42.5655 38.9298 42.7123 38.771C42.8143 38.6406 42.8597 38.4862 42.8414 38.3323C42.8446 38.2258 42.8198 38.1199 42.7686 38.0219C42.6582 37.8335 42.4043 37.7321 42.1703 37.645L40.1991 36.912C40.0847 36.8626 39.962 36.8272 39.8348 36.8071C39.7278 36.7988 39.62 36.8009 39.5136 36.8133L38.6207 36.8968C38.816 36.9995 38.975 37.1418 39.082 37.3097C39.189 37.4775 39.2404 37.6652 39.2311 37.8541" fill="#3F3D56"/>
</g>
<defs>
<clipPath id="clip0_2_79">
<rect width="130" height="65" fill="white"/>
</clipPath>
</defs>
</svg>
